# xmcd
#
# Track frame offsets:
#	150
#	41614
#	59910
#	85680
#	114367
#	134398
#	148158
#	187551
#	214187
#	249935
#
# Disc length: 3672 seconds
#
# Revision: 1
# Processed by: cddbd v1.4PL0 Copyright (c) Steve Scherf et al.
# Submitted via: CDmax 2.0
#
DISCID=8a0e560a
DTITLE=Acoustic Hot Tuna - Jorma Kaukonen and Jack Casady - Live in Mt. Tabor
DTITLE=, NJ - 11.24.2001 - d2
DYEAR=2001
DGENRE=Blues
TTITLE0=99 Year Blues
TTITLE1=I Am the Light Of This World
TTITLE2=Waiting For A Train
TTITLE3=Uncle Sam Blues
TTITLE4=Trouble In Mind
TTITLE5=A Life Well Lived
TTITLE6=That'll Never Happen No More
TTITLE7=San Francisco Bay Blues
TTITLE8=I Know You Rider
TTITLE9=Keep Your Lamps Trimmed And Burning
EXTD=
EXTT0=
EXTT1=
EXTT2=
EXTT3=
EXTT4=
EXTT5=
EXTT6=
EXTT7=
EXTT8=
EXTT9=
PLAYORDER=
